<svg xmlns="http://www.w3.org/2000/svg" width="1920" height="1080" viewBox="0 0 1920 1080" version="1.1"><path d="M 306.500 385.074 C 261.794 388.101, 216.453 410.622, 186.861 444.500 C 133.817 505.226, 127.935 593.098, 172.471 659.469 C 186.276 680.042, 201.003 694.771, 221.531 708.535 C 280.831 748.295, 358.169 748.295, 417.469 708.535 C 437.997 694.771, 452.724 680.042, 466.529 659.469 C 501.100 607.949, 505.961 542.235, 479.359 486.031 C 448.072 419.929, 379.885 380.105, 306.500 385.074 M 1488.220 462.018 C 1466.675 467.662, 1451.861 482.001, 1445.362 503.500 C 1442.508 512.939, 1442.928 527.418, 1446.342 537.328 C 1454.877 562.104, 1475.926 577.174, 1502 577.174 C 1528.042 577.174, 1549.091 562.146, 1557.624 537.462 C 1559.947 530.742, 1560.377 527.862, 1560.377 519 C 1560.377 510.138, 1559.947 507.258, 1557.624 500.538 C 1550.726 480.584, 1536.129 467.276, 1515.297 461.948 C 1505.833 459.528, 1497.644 459.549, 1488.220 462.018 M 238.347 472.095 C 214.963 476.001, 197 496.024, 197 518.182 L 197 524 245.995 524 L 294.990 524 295.245 621.230 L 295.500 718.461 300 718.181 C 320.041 716.932, 338.256 701.622, 343.639 681.500 C 344.699 677.535, 344.979 660.736, 344.988 600.315 L 345 524.130 375.750 523.798 C 405.120 523.480, 406.743 523.363, 411.910 521.184 C 430.613 513.298, 444 494.581, 444 476.318 L 444 471 343.750 471.117 C 288.612 471.181, 241.181 471.621, 238.347 472.095 M 1487.487 473.746 C 1453.630 485.809, 1443.579 527.535, 1468.522 552.478 C 1491.608 575.565, 1530.029 568.977, 1544.633 539.427 C 1548.096 532.422, 1548.476 530.844, 1548.831 521.999 C 1549.275 510.934, 1547.689 503.774, 1542.943 495.431 C 1538.831 488.200, 1529.728 479.932, 1521.500 475.955 C 1515.051 472.837, 1513.633 472.547, 1503.500 472.265 C 1494.891 472.026, 1491.410 472.348, 1487.487 473.746" stroke="none" fill="#f0f1f5" fill-rule="evenodd"/><path d="M 244.760 280.462 C 185.582 287.928, 129.326 315.874, 88.448 358.113 C 76.041 370.933, 68.019 380.955, 57.721 396.500 C 48.877 409.851, 36.060 435.209, 30.427 450.500 C 25.837 462.960, 19.732 486.988, 17.470 501.500 C 15.229 515.873, 14.379 551.307, 15.918 566.230 C 23.003 634.959, 59.126 701.430, 112.500 743.955 C 132.413 759.821, 162.595 776.793, 186.435 785.530 C 199.071 790.161, 223.295 796.330, 237.500 798.533 C 252.076 800.795, 286.298 801.603, 301.667 800.049 C 344.209 795.747, 385.257 781.055, 420.507 757.515 C 459.997 731.143, 489.470 697.568, 510.058 655.500 C 514.365 646.700, 519.527 635.029, 521.530 629.565 C 526.161 616.929, 532.330 592.705, 534.533 578.500 C 536.762 564.137, 537.591 529.962, 536.088 514.425 C 529.443 445.713, 493.764 379.862, 439.461 336.082 C 420.073 320.452, 389.534 303.255, 365.565 294.470 C 352.986 289.860, 328.771 283.686, 314.500 281.450 C 299.775 279.142, 259.715 278.575, 244.760 280.462 M 306.500 385.074 C 261.794 388.101, 216.453 410.622, 186.861 444.500 C 133.817 505.226, 127.935 593.098, 172.471 659.469 C 186.276 680.042, 201.003 694.771, 221.531 708.535 C 280.831 748.295, 358.169 748.295, 417.469 708.535 C 437.997 694.771, 452.724 680.042, 466.529 659.469 C 501.100 607.949, 505.961 542.235, 479.359 486.031 C 448.072 419.929, 379.885 380.105, 306.500 385.074 M 1324.860 471.509 C 1317.623 473.829, 1310.701 480.755, 1306.040 490.339 C 1301.878 498.898, 1232.738 686.845, 1231.033 694.234 C 1229.457 701.065, 1229.852 706.140, 1232.381 711.571 C 1238.944 725.665, 1257.377 729.660, 1266.395 718.943 C 1270.112 714.525, 1272.870 708.131, 1280.602 686 C 1284.156 675.825, 1287.555 666.263, 1288.154 664.750 L 1289.243 662 1335.871 662.012 L 1382.500 662.023 1388.385 678.762 C 1395.249 698.287, 1400.829 711.632, 1404.358 716.965 C 1412.147 728.734, 1431.178 726.969, 1439.371 713.718 C 1443.065 707.743, 1443.735 701.426, 1441.573 692.947 C 1440.669 689.401, 1427.980 654.775, 1413.377 616 C 1398.773 577.225, 1382.652 534.250, 1377.553 520.500 C 1372.454 506.750, 1366.855 492.674, 1365.112 489.221 C 1361.254 481.578, 1355.366 475.496, 1349.149 472.730 C 1343.137 470.054, 1331.258 469.457, 1324.860 471.509 M 1596.500 471.227 C 1591.208 473.114, 1584.894 478.098, 1581.985 482.685 C 1576.899 490.705, 1576.838 492.249, 1577.182 604 C 1577.481 701.190, 1577.610 707.744, 1579.303 711.500 C 1587.477 729.634, 1610.524 729.343, 1618.902 711 C 1620.308 707.921, 1620.560 698.191, 1621 630.139 L 1621.500 552.778 1663.938 622.639 C 1712.510 702.600, 1717.855 710.886, 1724.997 717.307 C 1738.287 729.257, 1758.730 727.097, 1765.997 712.975 C 1769.994 705.208, 1770.114 701.423, 1769.801 592.500 L 1769.500 487.500 1766.652 481.699 C 1762.551 473.348, 1757.936 470.500, 1748.505 470.500 C 1738.996 470.500, 1734.033 473.563, 1730.161 481.823 L 1727.500 487.500 1727 565.841 L 1726.500 644.182 1680.093 568.841 C 1624.685 478.887, 1624.163 478.078, 1619.213 474.648 C 1612.644 470.095, 1603.527 468.722, 1596.500 471.227 M 238.347 472.095 C 214.963 476.001, 197 496.024, 197 518.182 L 197 524 245.995 524 L 294.990 524 295.245 621.230 L 295.500 718.461 300 718.181 C 320.041 716.932, 338.256 701.622, 343.639 681.500 C 344.699 677.535, 344.979 660.736, 344.988 600.315 L 345 524.130 375.750 523.798 C 405.120 523.480, 406.743 523.363, 411.910 521.184 C 430.613 513.298, 444 494.581, 444 476.318 L 444 471 343.750 471.117 C 288.612 471.181, 241.181 471.621, 238.347 472.095 M 1813.500 472.426 C 1794.801 478.242, 1784.285 494.792, 1787.015 514.107 C 1788.920 527.580, 1798.813 540.541, 1810.541 544.929 C 1816.799 547.271, 1827.623 547.708, 1833.101 545.841 C 1838.457 544.016, 1844.608 539.373, 1848.087 534.529 L 1851.283 530.079 1855.891 534.178 C 1862.570 540.117, 1868.208 542.432, 1876 542.432 C 1887.088 542.432, 1895.179 537.275, 1900.795 526.628 C 1903.281 521.915, 1903.500 520.569, 1903.500 510 C 1903.500 499.615, 1903.240 497.945, 1900.819 492.780 C 1895.155 480.695, 1882.782 472.975, 1874.575 476.404 C 1870.367 478.162, 1868.620 481.754, 1869.785 486.251 C 1870.653 489.601, 1870.749 489.674, 1879.333 493.574 C 1886.709 496.925, 1888.991 500.373, 1888.996 508.173 C 1889.003 517.725, 1883.016 522.664, 1872.487 521.791 C 1868.469 521.457, 1866.287 520.682, 1864.397 518.917 C 1859.721 514.549, 1858.536 510.847, 1858.088 499.205 C 1857.958 495.817, 1853.672 492, 1850 492 C 1848.052 492, 1846.002 492.907, 1844.455 494.455 C 1842.216 496.693, 1842 497.693, 1842 505.807 C 1842 515.551, 1840.539 519.065, 1834.682 523.404 C 1830.455 526.536, 1817.790 526.954, 1812.280 524.143 C 1807.545 521.727, 1803.237 516.937, 1802.416 513.173 C 1802.095 511.703, 1801.641 509.889, 1801.407 509.143 C 1800.688 506.854, 1802.922 500.246, 1805.416 497.282 C 1807.594 494.694, 1813.891 491.268, 1823.256 487.577 C 1831.752 484.229, 1829.580 473.633, 1820 471.689 C 1818.625 471.410, 1815.700 471.742, 1813.500 472.426 M 1487.487 473.746 C 1453.630 485.809, 1443.579 527.535, 1468.522 552.478 C 1491.608 575.565, 1530.029 568.977, 1544.633 539.427 C 1548.096 532.422, 1548.476 530.844, 1548.831 521.999 C 1549.275 510.934, 1547.689 503.774, 1542.943 495.431 C 1538.831 488.200, 1529.728 479.932, 1521.500 475.955 C 1515.051 472.837, 1513.633 472.547, 1503.500 472.265 C 1494.891 472.026, 1491.410 472.348, 1487.487 473.746 M 587.183 475.888 C 580.647 478.162, 575.591 482.901, 573.262 488.934 C 571.620 493.190, 571.500 500.591, 571.500 598 C 571.500 702.486, 571.500 702.501, 573.626 707 C 576.399 712.871, 579.276 715.771, 584.905 718.375 C 589.434 720.470, 590.513 720.504, 660.297 720.776 C 707.551 720.960, 732.393 720.702, 735.001 720 C 739.254 718.854, 744.373 715.034, 746.198 711.642 C 748.227 707.870, 748.880 701.656, 747.788 696.500 C 746.493 690.379, 741.297 684.731, 735.477 683.115 C 732.792 682.370, 713.070 682.009, 674.750 682.006 L 618 682 618 646.534 L 618 611.067 670.750 610.784 C 729.787 610.466, 727.504 610.746, 732.460 603.222 C 739.333 592.789, 734.666 578.222, 723.453 575.109 C 720.824 574.379, 702.504 574.009, 668.750 574.006 L 618 574 618 543.032 L 618 512.063 674.750 511.782 C 731.190 511.502, 731.523 511.488, 735.649 509.281 C 741.799 505.992, 744.500 501.001, 744.500 492.927 C 744.500 487.484, 744.043 485.663, 741.839 482.333 C 736.408 474.125, 740.410 474.530, 662 474.269 C 596.615 474.052, 592.185 474.148, 587.183 475.888 M 802.224 475.428 C 794.377 477.954, 791.278 480.635, 787.692 488 L 785.500 492.500 785.500 599.500 L 785.500 706.500 788.328 712.258 C 792.824 721.414, 800.318 725.636, 810.568 724.786 C 818.584 724.121, 824.697 719.943, 828.485 712.540 L 831.500 706.646 831.797 660.823 L 832.094 615 843.410 615 C 874.705 615, 880.418 620.025, 910.483 674 C 930.956 710.754, 932.517 713.274, 937.941 718.348 C 944.611 724.587, 952.307 726.431, 961.277 723.940 C 968.860 721.834, 975.927 712.832, 975.978 705.215 C 976.067 691.918, 953.515 648.968, 935.143 627.445 C 929.678 621.043, 920.437 612.928, 915.619 610.300 C 914.045 609.441, 914.940 608.911, 921.119 607.042 C 948.120 598.874, 963.484 584.577, 969.751 561.790 C 972.483 551.852, 972.168 530.728, 969.142 521.035 C 961.626 496.958, 946.596 482.603, 922.500 476.486 C 916.307 474.914, 909.220 474.671, 861 474.380 C 816.761 474.112, 805.695 474.310, 802.224 475.428 M 1033.224 475.428 C 1025.377 477.954, 1022.278 480.635, 1018.692 488 L 1016.500 492.500 1016.500 599.500 L 1016.500 706.500 1019.328 712.258 C 1023.824 721.414, 1031.318 725.636, 1041.568 724.786 C 1049.584 724.121, 1055.697 719.943, 1059.485 712.540 L 1062.500 706.646 1062.797 660.823 L 1063.094 615 1074.410 615 C 1105.705 615, 1111.418 620.025, 1141.483 674 C 1161.956 710.754, 1163.517 713.274, 1168.941 718.348 C 1175.611 724.587, 1183.307 726.431, 1192.277 723.940 C 1199.860 721.834, 1206.927 712.832, 1206.978 705.215 C 1207.067 691.918, 1184.515 648.968, 1166.143 627.445 C 1160.678 621.043, 1151.437 612.928, 1146.619 610.300 C 1145.045 609.441, 1145.940 608.911, 1152.119 607.042 C 1179.120 598.874, 1194.484 584.577, 1200.751 561.790 C 1203.483 551.852, 1203.168 530.728, 1200.142 521.035 C 1192.626 496.958, 1177.596 482.603, 1153.500 476.486 C 1147.307 474.914, 1140.220 474.671, 1092 474.380 C 1047.761 474.112, 1036.695 474.310, 1033.224 475.428 M 832 545.098 L 832 579.195 862.250 578.728 C 885.736 578.364, 893.905 577.896, 898.781 576.634 C 911.028 573.465, 918.318 568.191, 922.113 559.757 C 924.061 555.427, 924.479 552.825, 924.488 545 C 924.500 533.773, 922.403 528.052, 915.801 521.308 C 907.177 512.498, 899.417 511.075, 859.750 511.031 L 832 511 832 545.098 M 1063 545.098 L 1063 579.195 1093.250 578.728 C 1116.736 578.364, 1124.905 577.896, 1129.781 576.634 C 1142.028 573.465, 1149.318 568.191, 1153.113 559.757 C 1155.061 555.427, 1155.479 552.825, 1155.488 545 C 1155.500 533.773, 1153.403 528.052, 1146.801 521.308 C 1138.177 512.498, 1130.417 511.075, 1090.750 511.031 L 1063 511 1063 545.098 M 1334.608 525 C 1334.270 525.825, 1326.605 548.663, 1317.576 575.750 L 1301.159 625 1335.509 625 L 1369.860 625 1354.825 580.750 C 1334.776 521.740, 1335.324 523.253, 1334.608 525 M 1820.640 561.495 C 1806.565 564.407, 1794.329 572.470, 1789.488 582.023 C 1784.476 591.915, 1784.237 604.965, 1788.876 615.453 C 1791.585 621.577, 1799.798 629.547, 1806.764 632.812 C 1811.991 635.261, 1813.565 635.500, 1824.500 635.500 C 1835.549 635.500, 1836.976 635.278, 1842.500 632.699 C 1849.413 629.472, 1856.249 623.266, 1859.241 617.500 C 1862.137 611.918, 1862.770 600.833, 1860.569 594.209 C 1859.647 591.431, 1857.078 587.098, 1854.861 584.579 C 1850.451 579.570, 1850.406 579.599, 1860.500 581.037 C 1879.006 583.675, 1887.988 590.266, 1887.996 601.215 C 1887.999 605.088, 1887.433 606.576, 1884.829 609.542 C 1883.085 611.528, 1879.927 613.846, 1877.811 614.692 C 1866.556 619.196, 1867.821 632.659, 1879.476 632.407 C 1888.063 632.221, 1897.162 624.481, 1901.115 614 C 1904.165 605.913, 1903.504 592.594, 1899.662 584.741 C 1894.598 574.391, 1884.167 567.123, 1868.197 562.815 C 1858.129 560.100, 1831.024 559.348, 1820.640 561.495 M 1479.249 639.130 C 1479.598 712.099, 1479.385 709.585, 1485.870 717.161 C 1491.878 724.180, 1500.038 726.501, 1509.500 723.882 C 1514.597 722.471, 1522.320 714.865, 1524.104 709.500 C 1525.144 706.374, 1525.504 691.028, 1525.751 639.250 C 1525.925 602.813, 1525.715 573.006, 1525.284 573.013 C 1524.853 573.020, 1521.575 573.954, 1518 575.088 C 1507.187 578.519, 1492.135 577.826, 1480.503 573.363 C 1479.082 572.818, 1478.962 579.126, 1479.249 639.130 M 1813.044 583.577 C 1799.648 589.388, 1796.380 601.690, 1805.939 610.326 C 1810.734 614.658, 1815.216 615.987, 1825.054 615.994 C 1838.620 616.004, 1847 609.737, 1847 599.582 C 1847 592.105, 1843.173 586.642, 1835.768 583.548 C 1830.951 581.535, 1817.713 581.552, 1813.044 583.577 M 1821.757 649.975 C 1795.919 654.645, 1781.513 671.057, 1785.112 691.722 C 1787.769 706.981, 1801.048 718.194, 1821.095 722.105 C 1830.584 723.957, 1859.771 723.717, 1868.781 721.714 C 1884.496 718.219, 1896.865 708.943, 1900.533 697.901 C 1903.200 689.871, 1902.265 677.081, 1898.505 670.181 C 1893.462 660.926, 1884.152 654.818, 1870 651.484 C 1861.529 649.488, 1829.922 648.499, 1821.757 649.975 M 1817.369 671.493 C 1804.285 674.338, 1798.672 680.353, 1801.007 689.024 C 1803.241 697.321, 1811.021 700.520, 1833.166 702.245 C 1858.777 704.241, 1878.620 701.113, 1884.037 694.226 C 1886.744 690.785, 1886.712 682.809, 1883.977 678.968 C 1881.457 675.428, 1873.929 672.514, 1863.594 671.076 C 1852.939 669.594, 1824.937 669.846, 1817.369 671.493" stroke="none" fill="#2272a0" fill-rule="evenodd"/></svg>